<?xml version="1.0" standalone="no"?>
<!DOCTYPE svg PUBLIC "-//W3C//DTD SVG 20010904//EN"
 "http://www.w3.org/TR/2001/REC-SVG-20010904/DTD/svg10.dtd">
<svg version="1.0" xmlns="http://www.w3.org/2000/svg"
 width="391.000000pt" height="520.000000pt" viewBox="0 0 391.000000 520.000000"
 preserveAspectRatio="xMidYMid meet">

<g transform="translate(0.000000,520.000000) scale(0.100000,-0.100000)"
fill="#000000" stroke="none">
<path d="M1250 4950 c0 -5 -7 -10 -16 -10 -8 0 -13 -4 -9 -9 3 -5 -4 -12 -15
-16 -14 -5 -19 -12 -15 -24 3 -11 -6 -29 -25 -50 -17 -17 -28 -37 -24 -43 5
-7 2 -9 -9 -5 -10 4 -20 0 -26 -11 -6 -10 -11 -12 -11 -4 0 7 19 33 41 57 60
65 43 65 -21 0 l-54 -55 22 -16 c12 -8 22 -20 22 -26 0 -7 -9 -2 -21 11 -16
17 -24 20 -35 10 -8 -6 -14 -16 -14 -21 0 -6 7 -5 15 2 8 7 15 8 15 3 0 -5
-11 -15 -25 -21 -25 -12 -34 -32 -14 -32 5 0 7 -5 3 -11 -5 -8 -9 -8 -14 1 -5
9 -9 9 -14 1 -4 -6 -4 -15 -1 -21 3 -5 2 -10 -4 -10 -12 0 -30 -58 -37 -120
-6 -57 -25 -120 -35 -120 -5 0 -7 -22 -6 -50 2 -47 -6 -66 -16 -37 -2 6 -3 4
-1 -6 4 -26 -15 -78 -37 -103 -20 -22 -25 -39 -9 -29 6 3 10 2 10 -2 0 -5 -10
-13 -22 -18 -13 -6 -33 -30 -45 -55 -40 -79 -29 -180 36 -320 11 -25 21 -58
21 -75 1 -43 44 -160 73 -199 21 -27 31 -32 59 -29 27 2 29 1 13 -6 -11 -5
-31 -10 -44 -10 -40 -1 -113 -41 -107 -58 4 -9 2 -11 -6 -7 -7 5 -9 0 -6 -14
4 -12 3 -24 -1 -27 -11 -6 -3 -59 20 -140 11 -38 25 -88 32 -110 20 -72 58
-142 94 -175 44 -41 123 -52 261 -39 192 18 249 36 282 92 22 35 45 130 55
227 8 76 17 90 55 90 27 0 29 -4 45 -77 37 -167 85 -246 161 -264 118 -27 440
16 522 69 47 31 84 135 97 275 4 37 7 67 8 67 1 -1 27 -7 57 -14 l55 -12 5
-180 c5 -170 6 -179 25 -179 12 0 25 11 34 29 20 42 59 188 72 266 20 126 28
147 72 177 34 24 50 28 106 28 53 0 75 -6 115 -28 27 -15 51 -25 54 -22 3 2 5
40 6 84 1 44 5 79 9 78 11 -3 49 92 45 112 -2 9 2 21 10 26 14 11 27 229 14
249 -3 6 -7 16 -7 21 -2 22 -27 101 -37 112 -5 7 -7 17 -4 22 4 5 1 13 -4 16
-6 4 -15 18 -21 32 -5 13 -13 21 -19 18 -6 -3 -7 1 -4 9 15 39 -120 192 -206
234 -30 14 -72 26 -92 26 -21 0 -32 4 -25 8 7 5 1 8 -15 8 -22 0 -28 5 -28 23
0 13 6 29 13 36 10 10 8 15 -7 27 -11 8 -30 14 -43 14 -40 0 -145 41 -220 87
-39 23 -79 43 -87 43 -9 0 -16 5 -16 10 0 6 -5 10 -10 10 -6 0 -27 7 -47 15
-34 14 -35 16 -19 33 9 10 16 22 16 27 0 5 7 16 16 26 9 10 13 22 10 27 -5 8
-476 7 -551 -1 -16 -2 -42 -4 -57 -5 -20 -2 -26 -6 -22 -17 7 -17 -11 -21 -21
-5 -3 6 -11 10 -17 10 -6 0 -3 -9 7 -20 26 -29 9 -38 -20 -10 -21 20 -25 21
-25 6 0 -9 -4 -14 -10 -11 -5 3 -10 2 -10 -4 0 -5 5 -13 10 -16 6 -3 10 -1 10
4 0 6 5 11 11 11 6 0 9 -6 6 -12 -2 -7 -18 -13 -35 -13 -28 -1 -31 2 -26 22 7
27 -16 32 -39 8 -8 -8 -17 -11 -21 -8 -3 4 -6 1 -6 -6 0 -8 7 -10 20 -6 14 5
20 2 20 -9 0 -13 14 -16 84 -16 47 0 88 -4 91 -10 3 -6 -4 -10 -17 -11 -63 -2
-128 -12 -173 -26 -27 -9 -58 -16 -67 -15 -10 0 -15 -5 -12 -12 3 -9 -4 -12
-26 -11 -16 1 -30 -2 -30 -7 0 -4 10 -9 23 -9 25 -2 61 -4 96 -7 34 -3 20 -13
-26 -19 -21 -2 -53 -9 -70 -14 -18 -6 -42 -8 -53 -4 -11 4 -20 2 -20 -4 0 -6
5 -11 10 -11 6 0 10 -5 10 -11 0 -8 -4 -8 -15 1 -20 16 -56 4 -48 -17 5 -12 2
-15 -10 -10 -11 4 -23 -7 -42 -39 -31 -52 -45 -53 -20 -1 21 44 190 207 215
207 5 0 10 5 10 10 0 6 9 10 19 10 29 0 35 17 9 23 -12 4 -25 2 -28 -4 -4 -5
-14 -7 -23 -3 -13 5 -16 2 -11 -10 3 -9 1 -16 -5 -16 -6 0 -11 6 -11 13 0 6
-11 -1 -24 -16 -14 -16 -29 -26 -34 -23 -6 3 -13 -5 -16 -19 -4 -14 -10 -25
-15 -25 -17 0 -22 52 -15 161 6 97 5 109 -10 109 -9 0 -16 -4 -16 -10z m490
-101 c0 -14 -17 -10 -23 5 -4 10 -1 13 9 9 7 -3 14 -9 14 -14z m250 11 c13 -8
13 -10 -2 -10 -9 0 -20 5 -23 10 -8 13 5 13 25 0z m-450 -40 c0 -5 -4 -10 -10
-10 -5 0 -10 5 -10 10 0 6 5 10 10 10 6 0 10 -4 10 -10z m545 -19 c72 -15 115
-30 115 -42 0 -13 -7 -11 -34 6 -46 31 -256 37 -286 10 -9 -8 -22 -15 -29 -15
-7 0 -18 -6 -26 -13 -15 -15 -88 -10 -83 5 6 16 96 49 157 56 75 9 114 8 186
-7z m160 -51 c3 -5 -1 -10 -9 -10 -8 0 -18 5 -21 10 -3 6 1 10 9 10 8 0 18 -4
21 -10z m105 -60 c0 -5 -2 -10 -4 -10 -3 0 -8 5 -11 10 -3 6 -1 10 4 10 6 0
11 -4 11 -10z m-10 -160 c0 -5 -4 -10 -10 -10 -5 0 -10 5 -10 10 0 6 5 10 10
10 6 0 10 -4 10 -10z m-1106 -55 c4 -10 -2 -19 -17 -24 -12 -5 -39 -26 -59
-47 -43 -42 -48 -38 -16 15 26 43 38 56 58 64 24 9 27 8 34 -8z m1274 -20 c20
-14 34 -25 30 -25 -9 0 -78 41 -78 46 0 9 12 3 48 -21z m97 -73 c-3 -3 -18 7
-33 23 l-27 28 33 -23 c18 -12 31 -25 27 -28z m300 28 c10 -11 16 -20 13 -20
-3 0 -13 9 -23 20 -10 11 -16 20 -13 20 3 0 13 -9 23 -20z m93 -203 c45 -90
67 -152 77 -212 l6 -40 -14 31 c-8 17 -18 46 -22 65 -4 19 -10 39 -14 44 -4 6
-13 29 -21 53 -7 23 -17 42 -22 42 -4 0 -8 8 -8 18 0 9 -9 28 -20 42 -11 14
-20 31 -20 38 0 6 -4 12 -8 12 -5 0 -14 12 -20 28 -27 61 46 -40 86 -121z
m-2092 -13 c-3 -8 -10 -12 -16 -9 -7 4 -6 14 2 28 12 24 24 8 14 -19z m24 -14
c0 -5 -4 -10 -10 -10 -5 0 -10 5 -10 10 0 6 5 10 10 10 6 0 10 -4 10 -10z
m638 -301 c36 -17 97 -37 136 -44 43 -8 58 -14 39 -14 -18 -1 -33 -5 -33 -10
0 -14 81 -23 96 -10 8 7 17 9 21 6 3 -4 -7 -12 -23 -19 -53 -22 -64 -38 -64
-90 0 -32 4 -48 13 -48 6 0 68 9 137 20 170 27 227 25 360 -9 143 -37 153 -27
58 65 -36 35 -65 64 -64 65 0 0 46 6 101 13 89 12 101 12 112 -2 12 -15 58
-153 85 -254 7 -27 15 -48 18 -48 11 0 101 -62 97 -66 -2 -3 -24 7 -49 21 -40
22 -46 23 -64 10 -16 -13 -17 -16 -4 -25 13 -8 12 -10 -4 -10 -12 0 -16 -5
-12 -15 4 -11 -2 -15 -20 -15 -21 0 -24 4 -19 20 3 11 3 20 -2 20 -4 0 -9 19
-10 43 -1 23 1 36 3 30 3 -7 14 -13 24 -13 10 0 20 -6 23 -12 2 -7 8 -10 12
-6 12 11 -12 35 -41 42 -14 4 -35 16 -47 26 -11 11 -28 20 -37 20 -9 0 -22 6
-28 12 -18 18 -276 23 -385 9 -125 -17 -230 -47 -289 -83 -62 -38 -140 -49
-190 -25 -61 27 -165 40 -277 33 -58 -3 -117 -9 -130 -13 l-25 -6 20 33 c39
67 60 75 211 78 l135 4 -7 35 c-9 50 -24 70 -58 77 -47 9 -152 7 -206 -5 -61
-13 -84 -40 -100 -119 -10 -52 -10 -49 -6 41 2 52 10 128 16 168 15 92 37 115
172 181 l100 49 70 -65 c40 -37 97 -77 135 -95z m1336 121 c25 -38 36 -65 18
-44 -14 15 -54 84 -49 84 2 0 16 -18 31 -40z m-24 -180 c0 -5 -2 -10 -4 -10
-3 0 -8 5 -11 10 -3 6 -1 10 4 10 6 0 11 -4 11 -10z m-1465 -130 c8 -13 -5
-13 -25 0 -13 8 -13 10 2 10 9 0 20 -4 23 -10z m922 -177 c45 -21 58 -65 58
-203 0 -189 -36 -237 -197 -266 -99 -18 -312 -21 -350 -6 -56 23 -98 153 -98
302 0 105 28 138 133 159 23 5 51 12 62 16 14 5 10 -2 -12 -22 -32 -29 -73
-100 -73 -128 0 -29 15 -15 38 35 41 90 137 135 231 110 90 -24 144 -107 143
-221 -1 -65 9 -88 22 -53 11 30 6 130 -10 176 -8 25 -31 65 -51 88 l-36 42 54
-7 c30 -4 68 -14 86 -22z m-1264 -20 c-7 -2 -21 -2 -30 0 -10 3 -4 5 12 5 17
0 24 -2 18 -5z m82 -89 c-20 -37 -25 -62 -25 -116 0 -73 16 -154 32 -164 17
-11 17 1 2 51 -17 56 -12 140 11 185 8 15 28 39 45 54 26 22 42 26 90 26 32 0
62 -4 65 -10 3 -5 -1 -10 -10 -10 -20 0 -75 -31 -75 -42 0 -4 9 -8 20 -8 27 0
38 -46 16 -68 -13 -14 -20 -14 -36 -4 -11 6 -22 12 -25 12 -9 0 -5 -94 6 -135
14 -49 68 -105 102 -105 67 0 127 111 112 208 -9 58 -48 138 -76 152 -33 18
-16 22 24 5 60 -25 72 -59 72 -210 0 -110 -3 -136 -20 -170 -29 -59 -103 -87
-259 -100 l-83 -7 -11 78 c-7 44 -16 144 -22 223 -6 79 -13 154 -16 167 -5 20
-1 23 28 27 18 2 38 5 45 5 8 1 3 -16 -12 -44z m-110 -15 c4 -17 5 -32 3 -34
-1 -1 -27 0 -55 2 -61 6 -68 22 -20 46 49 24 64 21 72 -14z m1571 -7 c-2 -2
-21 0 -41 4 -22 4 -32 10 -25 14 11 7 74 -10 66 -18z m-1541 -119 c12 -107 35
-252 45 -278 6 -15 10 -28 10 -31 0 -8 -47 -4 -76 6 -50 18 -100 119 -111 227
l-6 52 44 -2 c43 -2 44 -1 57 41 8 23 18 42 22 42 5 0 11 -26 15 -57z m299
-142 c-2 -3 -12 3 -22 13 -16 17 -16 18 5 5 12 -7 20 -15 17 -18z m-33 -8 c13
-16 12 -17 -3 -4 -17 13 -22 21 -14 21 2 0 10 -8 17 -17z m69 -3 c0 -5 -7 -10
-16 -10 -8 0 -12 5 -9 10 3 6 10 10 16 10 5 0 9 -4 9 -10z m80 -114 c0 -3 -4
-8 -10 -11 -5 -3 -10 -1 -10 4 0 6 5 11 10 11 6 0 10 -2 10 -4z"/>
<path d="M2423 3783 c9 -2 17 -9 17 -14 0 -5 5 -9 11 -9 8 0 8 5 -1 15 -7 8
-20 14 -29 14 -13 -1 -13 -2 2 -6z"/>
<path d="M2280 3776 c0 -2 7 -7 16 -10 8 -3 12 -2 9 4 -6 10 -25 14 -25 6z"/>
<path d="M2496 3465 c4 -8 8 -15 10 -15 2 0 4 7 4 15 0 8 -4 15 -10 15 -5 0
-7 -7 -4 -15z"/>
<path d="M2064 3492 c-40 -14 -103 -75 -66 -65 10 2 24 -2 31 -11 28 -34 -12
-82 -49 -58 -18 11 -20 10 -20 -18 0 -61 22 -122 60 -161 31 -33 43 -39 79
-39 52 0 86 22 112 71 63 125 -36 317 -147 281z"/>
<path d="M2563 2734 c-16 -26 -39 -60 -51 -75 -29 -36 -23 -36 27 -4 36 24
107 102 100 109 -2 2 -14 7 -26 10 -19 6 -27 0 -50 -40z"/>
<path d="M1961 2450 c-99 -13 -136 -22 -143 -34 -5 -9 -17 -16 -27 -16 -15 0
-124 -59 -144 -79 -4 -4 -1 -21 7 -37 8 -16 19 -41 25 -56 6 -16 17 -28 26
-28 8 0 15 -9 15 -20 0 -20 18 -27 36 -12 5 5 29 15 52 22 29 9 53 26 70 49
52 69 56 71 287 147 90 29 141 50 127 52 -13 2 -38 -3 -55 -11 -35 -16 -117
-29 -117 -19 0 4 7 16 15 26 8 10 12 23 9 27 -7 12 -23 11 -183 -11z m-136
-80 c-3 -5 -1 -11 5 -15 5 -3 10 -19 10 -35 0 -20 6 -31 21 -35 16 -5 18 -10
10 -18 -9 -9 -14 -8 -21 3 -5 8 -13 11 -17 6 -4 -4 1 -14 11 -22 22 -15 17
-24 -27 -42 l-27 -12 16 25 c13 20 15 38 9 96 -5 52 -4 70 4 65 6 -4 9 -11 6
-16z"/>
<path d="M1920 2273 c0 -5 9 -19 20 -33 11 -14 20 -31 20 -37 0 -7 5 -13 11
-13 6 0 9 3 7 8 -25 52 -43 82 -50 82 -4 0 -8 -3 -8 -7z"/>
<path d="M1626 2225 c2 -28 -3 -39 -28 -60 -34 -29 -30 -32 12 -10 26 13 30
21 30 55 0 21 -4 41 -9 44 -4 3 -7 -10 -5 -29z"/>
<path d="M2280 2236 c-48 -20 -228 -105 -239 -113 -2 -2 -1 -6 3 -10 4 -4 22
1 39 11 68 40 220 116 233 116 7 0 16 5 19 10 8 13 9 13 -55 -14z"/>
<path d="M520 1423 c0 -7 -5 -13 -10 -13 -6 0 -8 -16 -4 -42 10 -71 104 -551
114 -583 5 -16 12 -46 14 -65 9 -70 35 -163 48 -171 7 -5 24 -10 38 -11 14 -1
32 -2 40 -4 8 -1 22 -2 31 -3 10 -1 19 -13 22 -31 6 -26 11 -30 56 -36 28 -4
48 -10 45 -15 -2 -4 -12 -6 -22 -3 -15 5 -15 4 1 -6 11 -7 23 -8 30 -2 24 18
46 22 40 6 -3 -7 0 -14 6 -14 6 0 11 5 11 10 0 6 7 10 15 10 10 0 12 -6 8 -17
-6 -16 -5 -16 10 -4 9 7 17 9 17 4 0 -10 58 -33 85 -33 18 0 18 0 0 -13 -14
-11 -15 -16 -5 -22 14 -8 30 11 30 36 0 9 7 22 15 29 14 11 19 7 16 -12 0 -5
6 -8 15 -8 8 0 12 5 9 10 -8 13 11 13 36 -1 14 -7 18 -16 14 -30 -6 -19 -5
-20 15 -9 13 7 38 10 56 7 19 -3 36 -1 39 4 13 19 27 8 21 -16 -6 -24 7 -35
19 -15 3 6 11 10 17 10 7 0 7 -5 -1 -14 -9 -11 -9 -15 1 -19 7 -3 -7 -6 -31
-6 -55 -1 -51 -6 13 -15 38 -5 47 -3 43 7 -6 15 90 123 100 113 4 -3 -5 -19
-20 -34 -17 -18 -27 -41 -29 -67 l-3 -40 -80 -2 c-44 -1 -85 -2 -90 -2 -21 -2
-47 -115 -43 -186 l4 -70 184 -5 c102 -3 379 -4 617 -2 l432 2 11 36 c7 21 8
39 3 47 -5 7 -10 23 -11 38 -1 20 5 27 31 35 29 8 32 13 35 51 l3 43 -146 0
c-132 0 -149 -2 -172 -20 -31 -24 -59 -25 -109 -3 -32 13 -86 18 -284 22
l-245 6 -3 53 c-2 31 1 52 7 52 6 0 11 9 11 21 0 15 4 19 16 15 9 -3 32 -6 52
-7 20 0 31 -3 24 -6 -25 -10 0 -23 45 -23 36 0 44 3 39 15 -3 10 1 15 12 16
60 4 79 11 100 35 20 22 26 25 34 13 8 -11 8 -10 4 5 -4 12 1 27 12 40 23 25
84 112 101 144 14 26 6 48 -12 34 -12 -10 -236 -21 -238 -12 0 3 -2 12 -4 20
-2 8 -18 92 -34 185 -57 326 -91 503 -101 529 -11 29 -35 34 -44 10 -5 -12
-15 -14 -44 -10 -20 4 -104 8 -185 11 -81 2 -152 7 -157 10 -6 4 -10 3 -10 -2
0 -4 -145 -6 -322 -3 -178 3 -325 2 -326 -2 -2 -5 -9 -5 -15 -1 -19 12 -67 9
-67 -4z m817 -999 c-3 -3 -12 -4 -19 -1 -8 3 -5 6 6 6 11 1 17 -2 13 -5z m270
-9 c9 -25 -4 -29 -17 -6 -7 15 -7 21 0 21 6 0 13 -7 17 -15z m798 -244 c52 -9
88 -20 85 -26 -3 -5 -16 -9 -30 -7 -46 5 -185 43 -195 53 -7 7 0 8 20 3 17 -4
71 -15 120 -23z"/>
<path d="M2420 1400 c0 -5 5 -10 10 -10 6 0 10 5 10 10 0 6 -4 10 -10 10 -5 0
-10 -4 -10 -10z"/>
<path d="M2965 1200 c-43 -7 -151 -41 -250 -80 -16 -6 -51 -25 -78 -42 -38
-24 -45 -33 -36 -44 18 -22 47 -17 51 8 2 15 16 29 42 41 62 29 263 95 311
103 25 3 45 10 45 15 0 10 -13 10 -85 -1z"/>
<path d="M1943 773 c20 -21 147 -33 147 -14 0 7 -9 9 -24 5 -13 -3 -47 2 -77
10 -66 20 -67 20 -46 -1z"/>
<path d="M2095 749 c-4 -6 -5 -13 -2 -16 7 -7 27 6 27 18 0 12 -17 12 -25 -2z"/>
<path d="M1868 703 c18 -2 45 -2 60 0 15 2 0 4 -33 4 -33 0 -45 -2 -27 -4z"/>
<path d="M1973 703 c9 -2 23 -2 30 0 6 3 -1 5 -18 5 -16 0 -22 -2 -12 -5z"/>
<path d="M2705 510 c-3 -5 -2 -10 4 -10 5 0 13 5 16 10 3 6 2 10 -4 10 -5 0
-13 -4 -16 -10z"/>
<path d="M2087 406 c-15 -14 -35 -30 -44 -35 -17 -10 -17 -10 0 -11 19 0 84
57 75 66 -3 2 -17 -7 -31 -20z"/>
<path d="M1905 410 c-3 -5 -2 -10 4 -10 5 0 13 5 16 10 3 6 2 10 -4 10 -5 0
-13 -4 -16 -10z"/>
<path d="M1840 400 c0 -5 4 -10 9 -10 6 0 13 5 16 10 3 6 -1 10 -9 10 -9 0
-16 -4 -16 -10z"/>
<path d="M1640 370 c0 -5 5 -10 11 -10 5 0 7 5 4 10 -3 6 -8 10 -11 10 -2 0
-4 -4 -4 -10z"/>
<path d="M1850 331 c0 -11 9 -21 23 -25 35 -9 77 -7 77 4 0 6 -8 10 -17 10
-10 0 -27 7 -37 15 -27 20 -46 19 -46 -4z"/>
</g>
</svg>
