<?xml version="1.0" standalone="no"?>
<!DOCTYPE svg PUBLIC "-//W3C//DTD SVG 20010904//EN"
 "http://www.w3.org/TR/2001/REC-SVG-20010904/DTD/svg10.dtd">
<svg version="1.0" xmlns="http://www.w3.org/2000/svg"
 width="1482.000000pt" height="814.000000pt" viewBox="0 0 1482.000000 814.000000"
 preserveAspectRatio="xMidYMid meet">

<g transform="translate(0.000000,814.000000) scale(0.100000,-0.100000)"
fill="#000000" stroke="none">
<path d="M0 4070 l0 -4070 7410 0 7410 0 0 4070 0 4070 -7410 0 -7410 0 0
-4070z m11055 2350 c6 -4 35 -15 65 -25 96 -31 211 -77 206 -82 -5 -5 -336
114 -346 124 -8 8 64 -8 75 -17z m-174 -142 c-12 -68 -24 -138 -27 -155 -3
-18 -10 -33 -15 -33 -12 0 -8 29 22 185 23 117 29 138 36 131 3 -2 -5 -60 -16
-128z m717 -58 c132 -49 276 -105 319 -123 43 -19 113 -46 156 -62 42 -15 80
-31 83 -36 3 -5 -32 5 -78 22 -122 46 -341 126 -433 158 -165 59 -327 129
-299 131 6 0 120 -40 252 -90z m-543 -10 c3 -6 -1 -7 -9 -4 -18 7 -21 14 -7
14 6 0 13 -4 16 -10z m185 0 c0 -5 -4 -10 -9 -10 -6 0 -13 5 -16 10 -3 6 1 10
9 10 9 0 16 -4 16 -10z m-203 -32 c18 -7 33 -15 33 -19 0 -7 -68 17 -79 27 -8
8 13 4 46 -8z m133 -8 c34 -11 67 -20 73 -20 26 0 97 -34 97 -46 0 -18 -5 -17
-38 0 -47 25 -122 54 -157 62 -5 1 -21 7 -35 12 -43 18 -5 13 60 -8z m-180
-26 l25 -15 -25 7 c-14 3 -29 10 -34 15 -16 14 6 10 34 -7z m143 -11 c-7 -2
-19 -2 -25 0 -7 3 -2 5 12 5 14 0 19 -2 13 -5z m-73 -13 c13 -9 13 -10 0 -10
-8 0 -22 5 -30 10 -13 9 -13 10 0 10 8 0 22 -5 30 -10z m130 0 c8 -5 11 -10 5
-10 -5 0 -17 5 -25 10 -8 5 -10 10 -5 10 6 0 17 -5 25 -10z m357 -6 c-3 -3
-12 -4 -19 -1 -8 3 -5 6 6 6 11 1 17 -2 13 -5z m-443 -19 c-4 -8 -10 -12 -15
-9 -14 8 -10 24 6 24 9 0 12 -6 9 -15z m174 -2 c32 -9 50 -18 41 -20 -9 -2
-38 5 -65 16 -61 25 -50 26 24 4z m-114 -14 c-3 -5 -10 -7 -15 -3 -5 3 -7 10
-3 15 3 5 10 7 15 3 5 -3 7 -10 3 -15z m244 2 c20 -10 60 -26 89 -35 60 -20
154 -65 136 -65 -7 -1 -25 4 -40 10 -15 6 -37 15 -48 20 -11 4 -56 21 -100 37
-44 17 -81 35 -83 41 -5 15 3 14 46 -8z m-357 -6 c34 -16 34 -16 4 -10 -16 4
-34 11 -39 16 -14 13 -3 11 35 -6z m243 -34 c16 -7 26 -14 23 -18 -10 -10
-137 44 -137 58 0 5 19 0 43 -10 23 -11 55 -24 71 -30z m524 -18 c56 -19 102
-39 102 -44 0 -12 7 -13 -90 22 -47 17 -100 36 -117 42 -18 5 -33 15 -33 20 0
5 8 6 18 2 9 -3 63 -22 120 -42z m-548 -22 c25 -9 45 -21 45 -26 1 -12 -26 -8
-39 6 -6 5 -17 9 -26 9 -8 0 -32 9 -53 20 -20 11 -46 20 -57 20 -11 0 -20 7
-20 15 0 12 9 11 53 -7 28 -12 72 -28 97 -37z m-243 33 c-3 -3 -12 -4 -19 -1
-8 3 -5 6 6 6 11 1 17 -2 13 -5z m373 -4 c12 -8 11 -10 -7 -10 -13 0 -23 5
-23 10 0 13 11 13 30 0z m-335 -10 c3 -5 2 -10 -4 -10 -5 0 -13 5 -16 10 -3 6
-2 10 4 10 5 0 13 -4 16 -10z m54 -14 c9 -11 7 -15 -9 -19 -30 -8 -24 -21 16
-36 19 -7 33 -15 30 -18 -2 -3 -21 1 -41 8 -29 11 -35 17 -31 34 3 11 6 26 6
33 0 16 15 15 29 -2z m66 -27 c12 -19 -3 -22 -27 -5 l-22 16 21 0 c12 0 25 -5
28 -11z m340 1 c3 -6 -1 -7 -9 -4 -18 7 -21 14 -7 14 6 0 13 -4 16 -10z m722
-12 c32 -12 53 -23 48 -25 -6 -2 -38 8 -70 21 -74 31 -57 34 22 4z m-1177 2
c0 -5 -4 -10 -9 -10 -6 0 -13 5 -16 10 -3 6 1 10 9 10 9 0 16 -4 16 -10z m310
-4 c0 -16 -18 -31 -27 -22 -8 8 5 36 17 36 5 0 10 -6 10 -14z m590 -102 c113
-42 207 -77 209 -80 2 -2 2 -7 -2 -10 -3 -4 -40 8 -82 25 -41 18 -126 50 -188
72 -61 22 -125 46 -142 53 -16 8 -47 19 -67 26 -21 6 -38 16 -38 21 0 5 24 0
53 -12 28 -11 144 -54 257 -95z m-660 69 c30 -14 87 -36 125 -49 39 -13 68
-24 65 -24 -25 -6 -68 -3 -67 5 1 6 -6 9 -15 7 -10 -2 -18 2 -18 8 0 5 -5 10
-10 10 -6 0 -26 7 -46 15 -19 8 -38 15 -42 15 -4 1 -13 6 -20 12 -7 6 -22 12
-35 13 -36 4 -37 4 -37 16 0 13 27 5 100 -28z m120 27 c18 -12 2 -12 -25 0
-13 6 -15 9 -5 9 8 0 22 -4 30 -9z m68 -30 c22 -7 23 -8 6 -9 -11 -1 -29 6
-40 15 -10 8 -13 12 -6 9 8 -4 26 -11 40 -15z m-423 0 c-3 -5 -11 -10 -16 -10
-6 0 -7 5 -4 10 3 6 11 10 16 10 6 0 7 -4 4 -10z m123 1 c9 -5 26 -12 36 -16
31 -9 13 -15 -27 -8 -22 3 -37 11 -37 19 0 16 4 17 28 5z m247 -6 c19 -7 54
-16 78 -19 24 -3 51 -8 60 -12 22 -8 22 -27 0 -20 -10 2 -47 13 -83 22 -66 18
-126 44 -102 44 7 0 28 -7 47 -15z m322 -34 c54 -21 148 -55 208 -76 110 -37
150 -54 129 -55 -27 0 -432 144 -448 160 -18 18 13 10 111 -29z m-637 19 c-8
-5 -6 -9 6 -14 9 -3 14 -9 11 -13 -4 -3 -13 0 -22 7 -8 7 -21 10 -28 7 -8 -3
-14 0 -14 6 0 7 13 12 30 13 16 1 23 -2 17 -6z m209 -29 c51 -26 82 -39 114
-45 15 -4 27 -11 27 -16 0 -13 -27 -13 -32 0 -2 6 -18 11 -36 13 -17 1 -32 5
-32 8 0 8 -48 29 -66 29 -9 0 -22 7 -30 15 -14 13 -14 15 1 15 10 0 34 -8 54
-19z m-109 -12 c0 -14 -46 -11 -58 4 -9 10 -4 12 23 9 19 -2 35 -8 35 -13z
m-140 2 c0 -5 -9 -7 -20 -4 -11 3 -20 7 -20 9 0 2 9 4 20 4 11 0 20 -4 20 -9z
m567 -6 c15 -8 114 -45 218 -81 161 -55 230 -84 203 -84 -13 0 -144 43 -163
53 -11 6 -25 12 -30 13 -21 3 -200 67 -210 74 -5 4 -22 10 -37 14 -16 3 -28
11 -28 16 0 14 14 12 47 -5z m883 -20 c0 -2 -13 1 -30 6 -16 6 -30 15 -30 20
0 5 14 3 30 -6 17 -9 30 -17 30 -20z m-1395 5 c3 -5 -1 -10 -9 -10 -8 0 -18 5
-21 10 -3 6 1 10 9 10 8 0 18 -4 21 -10z m163 -7 c12 -3 25 -9 28 -14 3 -5 13
-9 23 -9 9 0 35 -9 57 -19 34 -17 35 -19 12 -17 -15 1 -34 8 -42 15 -9 7 -23
11 -31 7 -8 -3 -15 -2 -15 3 0 5 -20 15 -45 22 -25 7 -45 17 -45 22 0 5 8 6
18 2 9 -4 27 -10 40 -12z m283 -9 c35 -15 100 -38 144 -52 58 -18 75 -27 61
-32 -16 -5 -130 31 -186 60 -9 4 -30 11 -47 14 -29 7 -67 36 -46 36 5 0 38
-12 74 -26z m-512 -5 c17 -6 31 -15 31 -20 0 -5 -15 -2 -32 7 -53 27 -53 32 1
13z m121 2 c0 -5 -11 -8 -24 -7 -13 0 -22 4 -19 9 6 10 43 9 43 -2z m420 -51
c114 -39 180 -69 180 -81 0 -14 -6 -12 -114 30 -56 22 -122 45 -148 51 -27 7
-48 18 -48 25 0 18 12 26 24 16 6 -5 54 -24 106 -41z m-354 31 c5 -5 41 -18
79 -31 39 -12 76 -23 83 -26 7 -2 11 -8 8 -13 -4 -5 -34 2 -69 16 -34 13 -76
29 -94 34 -18 5 -35 14 -38 19 -8 12 18 13 31 1z m-112 -7 c23 -9 20 -23 -4
-17 -11 3 -20 9 -20 14 0 11 3 11 24 3z m-1028 -25 c47 -8 184 -63 184 -73 0
-2 -10 -2 -22 0 -13 1 -23 3 -23 5 0 1 -22 3 -50 5 -27 1 -84 12 -125 24 -58
16 -96 20 -167 18 -50 -2 -90 -1 -88 0 29 29 184 40 291 21z m197 -19 c12 -13
15 -18 6 -12 -9 7 -45 19 -80 27 l-64 14 58 -3 c46 -2 63 -8 80 -26z m682 -11
c15 -7 13 -8 -10 -3 -16 4 -45 10 -64 13 -19 3 -36 11 -38 17 -4 11 66 -6 112
-27z m288 2 c50 -19 28 -20 -28 0 -30 10 -61 19 -70 19 -8 0 -15 4 -15 9 0 9
53 -4 113 -28z m1467 17 c10 -6 7 -7 -10 -2 -14 3 -32 11 -40 16 -10 6 -7 7
10 2 14 -3 32 -11 40 -16z m-1260 -2 c0 -3 -4 -8 -10 -11 -5 -3 -10 -1 -10 4
0 6 5 11 10 11 6 0 10 -2 10 -4z m870 -52 c136 -52 136 -52 128 -59 -3 -3 -59
15 -124 41 -65 25 -129 48 -141 51 -13 3 -23 10 -23 15 0 12 2 12 160 -48z
m-1216 40 c9 -3 16 -10 16 -14 0 -10 -38 -1 -46 11 -6 10 7 12 30 3z m-250
-35 c-6 -11 -24 -2 -24 11 0 5 7 7 15 4 8 -4 12 -10 9 -15z m331 -1 c-19 -11
-30 -5 -21 11 4 6 14 7 22 4 15 -5 14 -7 -1 -15z m140 1 c20 -12 34 -23 32
-25 -7 -7 -77 26 -77 36 0 14 4 13 45 -11z m220 -21 c58 -23 104 -46 101 -52
-2 -6 -10 -9 -17 -7 -83 21 -204 63 -215 74 -8 7 4 27 16 27 5 0 57 -19 115
-42z m345 9 c102 -40 130 -55 130 -67 0 -13 -87 15 -156 50 -32 16 -65 30 -71
30 -7 0 -13 5 -13 10 0 16 20 12 110 -23z m395 -21 c235 -90 395 -158 395
-167 0 -5 -3 -9 -7 -9 -4 0 -95 35 -202 78 -108 43 -229 91 -268 107 -40 15
-73 32 -73 37 0 13 9 11 155 -46z m-1230 35 c3 -5 1 -12 -5 -16 -5 -3 -10 1
-10 9 0 18 6 21 15 7z m-130 -21 c-27 -12 -35 -12 -35 0 0 6 12 10 28 9 24 0
25 -1 7 -9z m335 -5 c16 -19 1 -19 -24 0 -16 12 -17 15 -4 15 8 0 21 -7 28
-15z m648 -45 c4 0 30 -9 57 -20 42 -17 44 -19 15 -14 -72 13 -195 61 -198 77
-3 13 9 10 58 -14 33 -16 64 -29 68 -29z m-888 29 c0 -4 -4 -11 -10 -14 -5 -3
-10 -1 -10 6 0 6 -8 9 -20 6 -19 -5 -27 3 -15 15 8 8 55 -3 55 -13z m-155 -7
c-3 -3 -11 0 -18 7 -9 10 -8 11 6 5 10 -3 15 -9 12 -12z m495 -9 c0 -11 -7
-14 -24 -11 -37 7 -40 -18 -5 -32 31 -13 36 -24 17 -36 -6 -4 -9 -3 -5 2 3 5
-26 25 -64 44 -38 18 -67 35 -65 38 2 2 18 -4 35 -12 39 -21 41 -20 41 7 0 20
4 23 35 19 23 -3 35 -9 35 -19z m50 11 c0 -2 -7 -4 -15 -4 -8 0 -15 4 -15 10
0 5 7 7 15 4 8 -4 15 -8 15 -10z m-350 -14 c0 -5 -7 -7 -15 -4 -8 4 -15 8 -15
10 0 2 7 4 15 4 8 0 15 -4 15 -10z m395 0 c3 -5 -3 -10 -14 -10 -12 0 -21 5
-21 10 0 6 6 10 14 10 8 0 18 -4 21 -10z m-480 -10 c8 -13 -15 -13 -35 0 -12
8 -11 10 7 10 12 0 25 -4 28 -10z m154 -21 c3 -11 1 -12 -11 -1 -9 7 -23 10
-32 6 -15 -6 -22 6 -10 19 9 9 47 -8 53 -24z m-94 1 c8 0 31 -10 52 -22 48
-27 47 -27 41 -33 -3 -3 -27 6 -53 19 -26 14 -51 24 -55 21 -4 -3 -13 1 -19 9
-9 11 -9 15 1 19 7 2 15 0 16 -4 2 -5 10 -9 17 -9z m485 10 c12 -8 11 -10 -7
-10 -12 0 -25 5 -28 10 -8 13 15 13 35 0z m-610 -20 c0 -13 -11 -13 -30 0 -12
8 -11 10 8 10 12 0 22 -4 22 -10z m290 0 c0 -5 -2 -10 -4 -10 -3 0 -8 5 -11
10 -3 6 -1 10 4 10 6 0 11 -4 11 -10z m420 -10 c13 -9 13 -10 0 -10 -8 0 -22
5 -30 10 -13 9 -13 10 0 10 8 0 22 -5 30 -10z m605 -36 c50 -19 171 -64 269
-102 99 -37 181 -73 184 -79 6 -21 -16 -15 -138 32 -63 25 -191 74 -284 108
-93 34 -171 68 -174 76 -6 18 26 11 143 -35z m-1239 26 c6 -6 24 -12 41 -13
17 -1 29 -5 26 -9 -2 -5 2 -8 9 -8 7 0 24 -10 38 -21 l25 -21 -27 16 c-32 19
-65 12 -47 -10 6 -8 22 -14 35 -14 15 0 24 -6 24 -16 0 -11 -5 -14 -17 -9 -10
4 -43 16 -73 26 -30 11 -63 24 -72 29 -10 6 -25 10 -33 10 -8 0 -15 5 -15 11
0 7 7 8 18 4 20 -8 21 -8 45 -6 26 2 21 16 -10 28 l-28 11 26 1 c14 1 30 -4
35 -9z m-121 -10 c13 -5 14 -9 5 -9 -8 0 -24 4 -35 9 -13 5 -14 9 -5 9 8 0 24
-4 35 -9z m410 0 c3 -5 1 -10 -4 -10 -6 0 -11 5 -11 10 0 6 2 10 4 10 3 0 8
-4 11 -10z m168 -4 c18 -8 70 -28 117 -46 86 -34 114 -49 106 -58 -3 -2 -35 7
-71 22 -35 14 -94 38 -130 53 -36 14 -65 30 -65 35 0 11 7 10 43 -6z m-209
-36 c9 0 35 -9 59 -19 23 -11 53 -23 66 -26 22 -7 23 -8 6 -17 -12 -7 -20 -7
-25 2 -7 11 -17 14 -63 19 -5 1 -6 5 -3 10 5 7 -17 15 -79 26 -5 1 -14 3 -18
3 -5 1 -5 7 -2 12 4 7 12 7 25 0 10 -5 26 -10 34 -10z m314 -50 c64 -20 102
-37 102 -45 0 -11 -12 -10 -57 6 -97 33 -213 81 -219 91 -3 4 12 2 33 -6 21
-8 84 -29 141 -46z m-843 -88 c-22 -107 -35 -148 -35 -106 0 18 22 143 36 207
4 16 10 25 14 20 4 -4 -3 -59 -15 -121z m230 108 c8 -13 -5 -13 -25 0 -13 8
-13 10 2 10 9 0 20 -4 23 -10z m300 -11 c22 -10 29 -16 15 -13 -28 7 -80 33
-65 33 6 0 28 -9 50 -20z m-209 -24 c27 -15 40 -23 29 -19 -62 20 -105 36
-105 40 0 10 31 2 76 -21z m279 -5 c3 -6 -1 -7 -9 -4 -18 7 -21 14 -7 14 6 0
13 -4 16 -10z m102 -21 c-6 -10 -15 -19 -18 -19 -14 0 -73 29 -61 30 7 0 23
-5 34 -11 16 -8 22 -8 29 2 4 7 5 17 3 21 -3 4 2 5 10 2 12 -5 13 -9 3 -25z
m293 -14 c-7 -9 -15 -13 -17 -11 -7 7 7 26 19 26 6 0 6 -6 -2 -15z m-685 -5
c3 -5 2 -10 -4 -10 -5 0 -13 5 -16 10 -3 6 -2 10 4 10 5 0 13 -4 16 -10z m48
-17 c-7 -2 -19 -2 -25 0 -7 3 -2 5 12 5 14 0 19 -2 13 -5z m47 -19 c0 -2 -7
-4 -15 -4 -8 0 -15 4 -15 10 0 5 7 7 15 4 8 -4 15 -8 15 -10z m-1576 -51 c6
-7 -62 -72 -76 -73 -15 0 -8 15 24 47 33 34 40 38 52 26z m1025 -33 c-13 -11
-32 -25 -43 -31 -33 -19 -13 14 24 39 40 26 53 21 19 -8z m291 -15 c33 -14 64
-25 70 -25 24 0 81 -30 75 -40 -4 -6 -12 -6 -23 0 -9 5 -55 23 -102 40 -47 18
-89 36 -94 41 -18 16 13 10 74 -16z m-25 -46 c6 -4 27 -10 48 -14 21 -4 36
-12 35 -17 -2 -5 -6 -10 -8 -11 -10 -3 -140 56 -140 64 0 8 44 -7 65 -22z
m280 11 c8 -13 -5 -13 -25 0 -13 8 -13 10 2 10 9 0 20 -4 23 -10z m51 -15 c10
-8 14 -15 7 -15 -19 0 -43 11 -43 21 0 13 14 11 36 -6z m-71 -43 c-3 -3 -11 0
-18 7 -9 10 -8 11 6 5 10 -3 15 -9 12 -12z m-103 -13 c2 -5 19 -11 38 -11 46
-1 164 -52 168 -72 5 -25 -21 -20 -137 26 -123 48 -115 44 -106 57 8 14 32 14
37 0z m148 1 c8 -5 11 -10 5 -10 -5 0 -17 5 -25 10 -8 5 -10 10 -5 10 6 0 17
-5 25 -10z m203 -75 c209 -80 225 -87 211 -92 -10 -3 -380 141 -393 153 -12
11 25 -1 182 -61z m-35 -31 c31 -13 45 -44 18 -44 -22 0 -80 22 -95 35 -7 7
-10 18 -6 24 7 12 25 9 83 -15z m-1828 -4 c6 9 13 3 25 -21 10 -19 27 -44 38
-56 24 -27 17 -29 -22 -9 -36 19 -48 35 -53 71 -3 17 -3 24 0 16 3 -11 6 -11
12 -1z m1080 -5 c-7 -8 -17 -15 -22 -15 -6 0 -5 7 2 15 7 8 17 15 22 15 6 0 5
-7 -2 -15z m930 -82 c0 -8 -9 -9 -27 -4 -57 17 -104 41 -99 50 8 13 126 -30
126 -46z m180 -62 c58 -23 122 -46 143 -52 34 -9 52 -29 26 -29 -21 0 -309
115 -309 123 0 11 10 9 140 -42z m1473 -78 c65 -26 77 -35 57 -48 -5 -3 -10 1
-10 9 0 9 -5 16 -11 16 -5 0 -7 -4 -4 -10 3 -5 -1 -10 -9 -10 -9 0 -13 6 -10
14 6 16 -29 31 -47 20 -8 -5 -9 -3 -4 6 6 10 3 12 -13 8 -14 -4 -27 1 -39 15
-21 24 -26 25 90 -20z m-1144 -44 c113 -44 117 -46 109 -54 -6 -7 -218 72
-232 86 -20 18 20 8 123 -32z m-534 -136 c-10 -7 -21 -10 -26 -8 -4 3 -9 1
-11 -5 -2 -6 -12 -12 -23 -14 -11 -2 -29 -7 -40 -11 -11 -4 9 13 45 38 50 34
66 41 69 29 2 -9 -5 -21 -14 -29z m2011 32 c4 -8 10 -12 15 -9 6 3 86 -25 179
-62 95 -39 164 -72 157 -76 -6 -4 -14 -3 -17 1 -3 5 -13 7 -22 5 -10 -1 -18 1
-18 6 0 9 -61 36 -72 32 -5 -1 -8 2 -8 7 0 7 -43 22 -75 25 -5 1 -16 5 -22 9
-7 5 -17 5 -23 2 -5 -3 -10 -2 -10 4 0 12 -30 30 -60 34 -12 2 -25 9 -30 17
-4 7 -13 9 -20 5 -9 -5 -11 -4 -6 3 10 17 26 15 32 -3z m-1678 -100 c-1 -31
-16 35 -16 70 0 25 2 24 9 -10 4 -22 8 -49 7 -60z m-1188 -9 c0 -3 -4 -8 -10
-11 -5 -3 -10 -1 -10 4 0 6 5 11 10 11 6 0 10 -2 10 -4z m40 -10 c0 -3 -4 -8
-10 -11 -5 -3 -10 -1 -10 4 0 6 5 11 10 11 6 0 10 -2 10 -4z m55 -26 c8 -13
-5 -13 -25 0 -13 8 -13 10 2 10 9 0 20 -4 23 -10z m3175 -10 c8 -5 11 -10 5
-10 -5 0 -17 5 -25 10 -8 5 -10 10 -5 10 6 0 17 -5 25 -10z m-3210 -10 c0 -5
-8 -10 -17 -10 -15 0 -16 2 -3 10 19 12 20 12 20 0z m84 4 c13 -5 12 -9 -8
-25 -27 -21 -36 -24 -36 -9 0 6 7 10 15 10 9 0 12 6 9 15 -7 17 -3 18 20 9z
m-133 -37 c-5 -5 -17 -7 -26 -3 -14 5 -15 9 -5 21 10 12 16 13 27 4 9 -8 10
-16 4 -22z m-308 6 c-7 -2 -19 -2 -25 0 -7 3 -2 5 12 5 14 0 19 -2 13 -5z
m504 1 c-3 -3 -12 -4 -19 -1 -8 3 -5 6 6 6 11 1 17 -2 13 -5z m-151 -41 c-10
-10 -19 5 -10 18 6 11 8 11 12 0 2 -7 1 -15 -2 -18z m129 17 c-3 -5 -13 -10
-21 -10 -8 0 -12 5 -9 10 3 6 13 10 21 10 8 0 12 -4 9 -10z m68 -2 c-13 -6
-23 -17 -23 -24 0 -8 -6 -11 -15 -8 -8 4 -15 10 -15 15 0 5 7 9 15 9 8 0 15 5
15 10 0 6 10 10 23 9 l22 0 -22 -11z m-273 -13 c0 -8 -6 -15 -14 -15 -17 0
-28 14 -19 24 12 12 33 6 33 -9z m-313 -1 c-3 -3 -12 -4 -19 -1 -8 3 -5 6 6 6
11 1 17 -2 13 -5z m117 -13 c22 -19 20 -41 -3 -36 -26 5 -64 42 -48 48 18 6
33 3 51 -12z m318 7 c-9 -9 -15 -9 -24 0 -9 9 -7 12 12 12 19 0 21 -3 12 -12z
m208 2 c0 -5 -7 -10 -15 -10 -8 0 -15 5 -15 10 0 6 7 10 15 10 8 0 15 -4 15
-10z m110 0 c8 -5 11 -10 5 -10 -5 0 -17 5 -25 10 -8 5 -10 10 -5 10 6 0 17
-5 25 -10z m-390 -20 c0 -5 -7 -10 -15 -10 -8 0 -15 5 -15 10 0 6 7 10 15 10
8 0 15 -4 15 -10z m120 -25 c-11 -14 -40 -21 -40 -10 0 15 35 44 44 35 6 -6 4
-15 -4 -25z m247 9 c55 -25 57 -28 35 -37 -18 -8 -26 -7 -32 3 -5 8 -7 17 -4
21 9 15 -31 15 -48 1 -10 -8 -24 -12 -33 -8 -14 5 -13 8 2 25 10 11 19 20 20
20 1 1 28 -11 60 -25z m1071 6 c5 -29 -22 -54 -52 -46 -32 8 -43 30 -25 52 16
19 73 15 77 -6z m-1188 0 c0 -5 -4 -10 -9 -10 -6 0 -13 5 -16 10 -3 6 1 10 9
10 9 0 16 -4 16 -10z m-207 -6 c11 -11 -3 -24 -18 -18 -8 4 -12 10 -9 15 6 11
18 12 27 3z m121 0 c17 -7 10 -34 -9 -34 -17 0 -28 17 -20 30 7 12 8 12 29 4z
m321 -12 c-3 -3 -11 0 -18 7 -9 10 -8 11 6 5 10 -3 15 -9 12 -12z m-515 -23
c0 -5 -4 -9 -10 -9 -5 0 -10 7 -10 16 0 8 5 12 10 9 6 -3 10 -10 10 -16z m555
3 c-3 -3 -11 0 -18 7 -9 10 -8 11 6 5 10 -3 15 -9 12 -12z m-277 -15 c20 -16
-17 -38 -43 -25 -30 16 -30 17 -9 32 18 14 26 13 52 -7z m-236 -2 c0 -5 -5
-11 -11 -13 -6 -2 -11 4 -11 13 0 9 5 15 11 13 6 -2 11 -8 11 -13z m104 -6 c3
-5 -1 -9 -10 -9 -8 0 -16 -5 -18 -12 -3 -9 -8 -9 -20 2 -10 10 -12 18 -4 26
11 12 43 8 52 -7z m258 2 c4 -5 -7 -17 -23 -28 -16 -10 -66 -44 -110 -75 -77
-55 -101 -67 -101 -50 0 14 40 42 59 42 12 0 18 7 17 18 0 10 6 17 16 16 11
-1 14 4 11 13 -5 12 -1 14 15 9 17 -6 19 -3 15 15 -6 20 -3 22 25 16 27 -6 32
-4 32 13 0 21 33 29 44 11z m99 3 c9 -10 -62 -76 -74 -68 -7 4 1 19 22 39 36
35 42 38 52 29z m46 -23 c7 -5 10 -14 6 -20 -5 -9 -10 -9 -21 0 -26 22 -14 38
15 20z m-579 -5 c0 -3 -4 -8 -10 -11 -5 -3 -10 -1 -10 4 0 6 5 11 10 11 6 0
10 -2 10 -4z m250 -6 c13 -8 13 -11 -1 -25 -12 -13 -21 -13 -48 -4 l-32 11 23
13 c29 16 39 17 58 5z m386 -11 c10 -17 -13 -36 -27 -22 -12 12 -4 33 11 33 5
0 12 -5 16 -11z m-586 -9 c0 -5 -7 -10 -16 -10 -8 0 -12 5 -9 10 3 6 10 10 16
10 5 0 9 -4 9 -10z m510 -20 c0 -5 7 -10 15 -10 20 0 19 -16 -1 -24 -22 -8
-24 -8 -24 8 0 8 -7 13 -16 12 -9 0 -19 5 -21 12 -3 7 5 12 21 12 14 0 26 -4
26 -10z m155 -11 c7 -7 -1 -9 -24 -7 -19 2 -37 9 -39 17 -4 11 2 12 24 7 16
-4 34 -12 39 -17z m-575 4 c-1 -19 -18 -33 -34 -27 -13 5 -14 9 -5 20 12 15
39 19 39 7z m39 -12 c12 -8 12 -12 2 -25 -16 -19 -30 -12 -28 14 1 22 5 24 26
11z m252 -7 c10 -13 10 -17 0 -24 -8 -4 -10 -13 -6 -20 6 -10 0 -12 -28 -7
-25 4 -36 2 -34 -6 1 -7 -8 -12 -21 -11 -18 1 -22 -3 -18 -18 3 -14 1 -18 -11
-14 -8 3 -21 6 -29 6 -25 0 -15 17 21 34 19 9 35 21 35 25 0 5 14 14 30 21 17
7 30 16 30 21 0 14 16 10 31 -7z m359 -22 c3 -2 -2 -3 -10 0 -8 2 -27 -8 -42
-24 -15 -15 -34 -28 -43 -28 -9 0 -13 -4 -10 -10 3 -5 0 -10 -8 -10 -8 0 -17
-7 -21 -15 -3 -8 -12 -15 -20 -15 -8 0 -14 -8 -13 -19 1 -18 3 -18 32 -4 16 9
34 22 38 29 10 17 34 18 40 2 3 -7 6 -1 6 14 1 21 7 28 31 33 17 4 30 13 30
21 0 8 7 14 15 14 17 0 17 -5 6 -35 -5 -12 -4 -26 3 -35 10 -13 9 -13 -6 -1
-14 11 -21 11 -33 1 -8 -6 -18 -9 -24 -6 -5 3 -11 -1 -15 -9 -3 -8 -12 -15
-21 -15 -9 0 -29 -13 -45 -30 l-29 -29 -43 22 c-24 12 -45 23 -47 24 -6 4 49
53 59 53 17 0 119 75 120 88 0 10 5 10 23 1 12 -6 24 -14 27 -17z m-140 3 c0
-24 -30 -30 -48 -10 -9 10 -12 15 -5 11 6 -3 14 -2 18 4 10 16 35 12 35 -5z
m-128 -3 c2 -4 15 -17 31 -29 l27 -21 -31 -26 c-33 -28 -44 -31 -54 -16 -3 5
-13 7 -23 4 -9 -3 -6 2 8 11 24 16 24 16 3 12 -35 -8 -38 12 -7 44 28 30 40
35 46 21z m388 -43 c3 -1 -8 -4 -25 -8 -17 -4 -33 -2 -37 4 -14 20 -8 24 24
14 18 -5 35 -10 38 -10z m40 -17 c0 -5 -12 -14 -27 -21 -28 -13 -28 -13 -9 8
20 22 36 27 36 13z m-574 -27 c-8 -8 -17 -15 -20 -15 -3 0 -6 7 -6 15 0 9 9
15 21 15 18 0 19 -2 5 -15z m-146 -5 c8 -5 11 -10 5 -10 -5 0 -17 5 -25 10 -8
5 -10 10 -5 10 6 0 17 -5 25 -10z m274 -21 c2 -2 -7 -12 -20 -22 -21 -16 -24
-16 -24 -2 0 12 -6 15 -19 10 -11 -3 -22 -1 -26 5 -3 5 -1 10 5 10 6 0 9 4 6
9 -5 8 70 -2 78 -10z m306 11 c0 -5 -2 -10 -4 -10 -3 0 -8 5 -11 10 -3 6 -1
10 4 10 6 0 11 -4 11 -10z m45 -25 c-21 -18 -43 -31 -47 -29 -4 3 -8 1 -8 -5
0 -12 -109 -95 -116 -88 -2 2 16 21 41 41 25 21 45 34 45 30 0 -4 9 5 21 20
11 14 24 24 29 21 4 -3 11 2 14 11 4 9 9 14 12 11 4 -3 13 0 21 8 8 8 17 15
21 15 4 -1 -11 -16 -33 -35z m-91 6 c3 -5 -1 -11 -9 -14 -9 -4 -12 -1 -8 9 6
16 10 17 17 5z m-747 -47 c-9 -10 -38 16 -31 28 4 6 13 4 22 -6 9 -8 13 -19 9
-22z m713 26 c0 -5 -5 -10 -11 -10 -5 0 -7 5 -4 10 3 6 8 10 11 10 2 0 4 -4 4
-10z m1270 -6 c30 -9 66 -29 83 -45 l29 -30 -7 -197 c-6 -183 -8 -199 -28
-219 l-22 -23 3 167 c3 157 2 165 -15 158 -31 -14 -196 -18 -239 -6 -103 28
-145 98 -90 150 58 55 186 75 286 45z m-1442 -17 c6 3 12 0 12 -6 0 -6 9 -11
20 -11 11 0 20 -5 20 -10 0 -6 11 -8 25 -4 26 6 31 -1 17 -24 -7 -9 -24 -5
-73 20 -35 18 -66 33 -68 34 -1 2 0 8 5 15 5 9 10 8 18 -3 6 -8 17 -13 24 -11z
m-101 -26 c10 -6 15 -11 12 -11 -10 0 -99 40 -99 46 0 5 60 -19 87 -35z m233
19 c0 -5 -4 -10 -10 -10 -5 0 -10 5 -10 10 0 6 5 10 10 10 6 0 10 -4 10 -10z
m510 -44 c-14 -13 -27 -21 -30 -19 -4 4 40 42 50 43 2 0 -7 -11 -20 -24z m116
9 c50 -13 124 -56 124 -72 0 -3 -7 0 -15 7 -19 16 -83 -7 -91 -32 -3 -10 -10
-15 -16 -12 -5 4 6 23 27 44 36 37 36 38 15 45 -36 11 -68 -3 -115 -51 -25
-25 -45 -42 -45 -37 0 4 21 29 47 55 47 48 47 50 -2 61 -15 4 -16 5 -3 6 9 0
43 -6 74 -14z m-806 -5 c13 -8 13 -10 -2 -10 -9 0 -20 5 -23 10 -8 13 5 13 25
0z m45 -20 c3 -5 2 -10 -4 -10 -5 0 -13 5 -16 10 -3 6 -2 10 4 10 5 0 13 -4
16 -10z m585 -50 c-12 -17 -24 -29 -27 -27 -5 6 18 49 32 59 19 14 17 -1 -5
-32z m-490 5 c17 -9 30 -18 30 -21 0 -2 -12 2 -27 9 -16 8 -35 17 -43 20 -10
4 -11 6 -2 6 7 1 26 -6 42 -14z m465 5 c-3 -5 -16 -15 -28 -21 -21 -10 -21 -9
2 10 25 23 36 27 26 11z m-978 -52 c-3 -8 -6 -5 -6 6 -1 11 2 17 5 13 3 -3 4
-12 1 -19z m1327 7 c3 -8 1 -15 -4 -15 -6 0 -10 7 -10 15 0 8 2 15 4 15 2 0 6
-7 10 -15z m27 -47 c11 -21 11 -22 -4 -9 -10 7 -17 17 -17 22 0 15 9 10 21
-13z m1799 -1758 c13 -8 13 -10 -2 -10 -9 0 -20 5 -23 10 -8 13 5 13 25 0z
m-192 -134 c-2 -1 -10 -7 -19 -14 -14 -10 -18 -10 -22 1 -4 10 2 15 19 15 14
0 24 -1 22 -2z"/>
<path d="M11036 5573 c-3 -3 -6 -10 -6 -15 0 -12 50 -6 53 6 2 11 -37 18 -47
9z"/>
<path d="M11005 4270 c3 -5 8 -10 11 -10 2 0 4 5 4 10 0 6 -5 10 -11 10 -5 0
-7 -4 -4 -10z"/>
<path d="M12478 4119 c-52 -8 -125 -45 -141 -70 -14 -23 0 -66 26 -81 70 -38
199 -38 288 0 64 28 71 63 23 109 -43 40 -112 55 -196 42z"/>
</g>
</svg>
