<?xml version="1.0" standalone="no"?><!DOCTYPE svg PUBLIC "-//W3C//DTD SVG 1.1//EN" "http://www.w3.org/Graphics/SVG/1.1/DTD/svg11.dtd"><svg t="1740305337577" class="icon" viewBox="0 0 1024 1024" version="1.1" xmlns="http://www.w3.org/2000/svg" p-id="4563" width="64" height="64" xmlns:xlink="http://www.w3.org/1999/xlink"><path d="M113.173738 432.575948C171.58599 235.434598 299.362792 96.705499 529.361034 74.800905c14.603063 0 36.507658 0 54.761486-3.650766 14.603063-3.650766 36.507658-14.603063 54.761487-21.904595C711.899322 20.039418 876.18378-34.722068 956.500627 30.991716c69.364549 54.761486 58.412252 193.490585 14.603063 281.108962 36.507658 69.364549 62.063018 167.935225 47.459955 277.458198-204.442882 7.301532-445.393422 0-646.185538 3.650765 7.301532 105.872207 73.015315 186.189053 171.58599 200.792117 98.570675 10.952297 164.284459-43.809189 208.093648-105.872207h248.252071c-65.713784 182.538288-226.347477 324.918152-478.250314 306.664323-58.412252-3.650766-102.221441-21.904595-153.332161-40.158423-83.967612 43.809189-266.5059 113.173738-339.521215 18.253828-54.761486-73.015315-18.253829-200.792116 10.952297-284.759728 62.063018-171.58599 178.887522-339.521215 292.06126-438.09189 0-3.650766 3.650766-3.650766 3.650766-7.301532-91.269144 47.459955-149.681396 124.126036-222.696711 189.839819z m868.882249-266.5059c-3.650766-124.126036-164.284459-109.522973-248.252071-62.063017 94.91991 36.507658 164.284459 102.221441 219.045945 178.887521 14.603063-40.158423 29.206126-73.015315 29.206126-116.824504z m-609.67788 299.362792h390.631935c-10.952297-251.902837-379.679638-229.998242-390.631935 0z m-292.06126 441.742656c21.904595 113.173738 178.887522 80.316847 248.252071 29.206126-91.269144-51.110721-149.681396-138.729099-197.141351-237.299774-21.904595 51.110721-62.063018 135.078333-51.11072 208.093648z" fill="#1296db" p-id="4564"></path></svg>